<svg xmlns="http://www.w3.org/2000/svg" viewBox="0 0 147.37 130.4"><defs><style>.cls-1,.cls-2,.cls-3{fill:#1d1d1b;stroke-miterlimit:10;}.cls-1,.cls-3{stroke:#4ebcc2;}.cls-1,.cls-2{stroke-width:0.5px;}.cls-2{stroke:#438dcc;}.cls-3{font-size:14.58px;font-family:FranklinGothic-HeavyItalic, Franklin Gothic Heavy;font-weight:800;font-style:italic;}.cls-4{letter-spacing:-0.02em;}</style></defs><g id="Capa_2" data-name="Capa 2"><g id="Layer_1" data-name="Layer 1"><polygon class="cls-1" points="146.97 100.74 137.42 119.84 80.12 119.84 70.57 100.74 70.57 5.24 89.67 5.24 89.67 100.74 146.97 100.74"/><polygon class="cls-2" points="137.42 5.24 127.87 24.35 118.32 43.45 108.77 62.55 99.22 81.65 89.67 100.75 70.57 100.75 61.02 81.65 51.47 62.55 41.92 43.45 32.37 24.35 22.82 5.24 41.92 5.24 51.47 24.35 61.02 43.45 70.57 62.55 80.12 81.65 89.67 62.55 99.22 43.45 108.77 24.35 118.32 5.24 137.42 5.24"/><text class="cls-3" transform="matrix(0.75, 1.52, -0.9, 0.44, 5, 6.01)">DEVE<tspan class="cls-4" x="35.59" y="0">L</tspan><tspan x="43.02" y="0">OPER</tspan></text></g></g></svg>