<svg xmlns="http://www.w3.org/2000/svg" xmlns:xlink="http://www.w3.org/1999/xlink" viewBox="0 0 210.54 235.03"><defs><style>.cls-1,.cls-3,.cls-4{fill:#1d1d1b;}.cls-1{stroke:#0087c1;}.cls-1,.cls-2,.cls-3,.cls-4{stroke-miterlimit:10;}.cls-2{stroke:#9d9d9c;fill:url(#Degradado_sin_nombre_6);}.cls-2,.cls-3{stroke-width:0.5px;}.cls-3{stroke:#007eb9;}.cls-4{font-size:14.58px;stroke:#008ab8;font-family:FranklinGothic-HeavyItalic, Franklin Gothic Heavy;font-weight:800;font-style:italic;}.cls-5{letter-spacing:-0.02em;}</style><linearGradient id="Degradado_sin_nombre_6" x1="12.64" y1="131.92" x2="214.75" y2="131.92" gradientTransform="matrix(0.92, -0.03, 0.03, 0.92, 9.68, -0.56)" gradientUnits="userSpaceOnUse"><stop offset="0" stop-color="#fff"/><stop offset="0.14" stop-color="#d0d0d0"/><stop offset="0.38" stop-color="#878787"/><stop offset="0.59" stop-color="#4d4d4d"/><stop offset="0.77" stop-color="#232323"/><stop offset="0.92" stop-color="#090909"/><stop offset="1"/></linearGradient></defs><g id="Capa_2" data-name="Capa 2"><g id="Layer_1" data-name="Layer 1"><polygon class="cls-1" points="160.44 163.87 150.9 182.97 93.59 182.97 84.05 163.87 84.05 68.37 103.14 68.37 103.14 163.87 160.44 163.87"/><path class="cls-2" d="M203.13,157.8a118.14,118.14,0,0,1-7.53,16.44q-2.73,4.94-5.85,9.5A117.19,117.19,0,0,1,36.3,220.11c-2.7-1.49-5.31-3.08-7.85-4.74,2.27-3.47,4.43-7.07,6.47-10.76,1.15-2.07,2.24-4.14,3.29-6.23q3.63,2.46,7.56,4.64a97.63,97.63,0,0,0,132.75-38.23c1.34-2.41,2.57-4.86,3.67-7.34A97.69,97.69,0,0,0,144.86,34.64h0c-1.45-.91-2.95-1.79-4.46-2.63a97.15,97.15,0,0,0-24.61-9.55s0,0-.06,0A97.84,97.84,0,0,0,44.54,32.73q-4,2.28-7.76,4.94c-.25-.5-.52-1-.79-1.49-.45-.85-.92-1.7-1.39-2.55-2.42-4.35-5.05-8.61-7.85-12.76A117.15,117.15,0,0,1,205,82.74a117.87,117.87,0,0,1,5,42.17A116.48,116.48,0,0,1,203.13,157.8Z"/><path class="cls-2" d="M203.13,157.8a118.14,118.14,0,0,1-7.53,16.44q-2.73,4.94-5.85,9.5A117.19,117.19,0,0,1,36.3,220.11c-2.7-1.49-5.31-3.08-7.85-4.74,2.27-3.47,4.43-7.07,6.47-10.76,1.15-2.07,2.24-4.14,3.29-6.23q3.63,2.46,7.56,4.64a97.63,97.63,0,0,0,132.75-38.23c1.34-2.41,2.57-4.86,3.67-7.34A97.69,97.69,0,0,0,144.86,34.64h0c-1.45-.91-2.95-1.79-4.46-2.63a97.15,97.15,0,0,0-24.61-9.55s0,0-.06,0A97.84,97.84,0,0,0,44.54,32.73q-4,2.28-7.76,4.94c-.25-.5-.52-1-.79-1.49-.45-.85-.92-1.7-1.39-2.55-2.42-4.35-5.05-8.61-7.85-12.76A117.15,117.15,0,0,1,205,82.74a117.87,117.87,0,0,1,5,42.17A116.48,116.48,0,0,1,203.13,157.8Z"/><path class="cls-2" d="M172.35,203.86a117.32,117.32,0,0,1-136,16.25c-2.7-1.49-5.31-3.08-7.85-4.74,2.27-3.47,4.43-7.07,6.47-10.76,1.15-2.07,2.24-4.14,3.29-6.23q3.63,2.46,7.56,4.64a97.63,97.63,0,0,0,132.75-38.23c1.34-2.41,2.57-4.86,3.67-7.34A97.69,97.69,0,0,0,144.86,34.64h0c-1.45-.91-2.95-1.79-4.46-2.63a97.15,97.15,0,0,0-24.61-9.55s0,0-.06,0A97.84,97.84,0,0,0,44.54,32.73q-4,2.28-7.76,4.94c-.25-.5-.52-1-.79-1.49-.45-.85-.92-1.7-1.39-2.55-2.42-4.35-5.05-8.61-7.85-12.76A117.15,117.15,0,0,1,205,82.74a117.87,117.87,0,0,1,5,42.17,116.48,116.48,0,0,1-6.93,32.89,118.14,118.14,0,0,1-7.53,16.44q-2.73,4.94-5.85,9.5A116.7,116.7,0,0,1,172.35,203.86Z"/><path class="cls-2" d="M172.35,203.86a117.32,117.32,0,0,1-136,16.25c-2.7-1.49-5.31-3.08-7.85-4.74,2.27-3.47,4.43-7.07,6.47-10.76,1.15-2.07,2.24-4.14,3.29-6.23q3.63,2.46,7.56,4.64a97.63,97.63,0,0,0,132.75-38.23c1.34-2.41,2.57-4.86,3.67-7.34A97.69,97.69,0,0,0,144.86,34.64h0c-1.45-.91-2.95-1.79-4.46-2.63a97.15,97.15,0,0,0-24.61-9.55s0,0-.06,0A97.84,97.84,0,0,0,44.54,32.73q-4,2.28-7.76,4.94c-.25-.5-.52-1-.79-1.49-.45-.85-.92-1.7-1.39-2.55-2.42-4.35-5.05-8.61-7.85-12.76A117.15,117.15,0,0,1,205,82.74a117.87,117.87,0,0,1,5,42.17,116.48,116.48,0,0,1-6.93,32.89,118.14,118.14,0,0,1-7.53,16.44q-2.73,4.94-5.85,9.5A116.7,116.7,0,0,1,172.35,203.86Z"/><path class="cls-2" d="M195.6,174.24q-2.73,4.94-5.85,9.5A117.19,117.19,0,0,1,36.3,220.11c-2.7-1.49-5.31-3.08-7.85-4.74,2.27-3.47,4.43-7.07,6.47-10.76,1.15-2.07,2.24-4.14,3.29-6.23q3.63,2.46,7.56,4.64a97.63,97.63,0,0,0,132.75-38.23c1.34-2.41,2.57-4.86,3.67-7.34A97.69,97.69,0,0,0,144.86,34.64h0c-1.45-.91-2.95-1.79-4.46-2.63a97.15,97.15,0,0,0-24.61-9.55s0,0-.06,0A97.84,97.84,0,0,0,44.54,32.73q-4,2.28-7.76,4.94c-.25-.5-.52-1-.79-1.49-.45-.85-.92-1.7-1.39-2.55-2.42-4.35-5.05-8.61-7.85-12.76A117.15,117.15,0,0,1,205,82.74a117.87,117.87,0,0,1,5,42.17,116.48,116.48,0,0,1-6.93,32.89A118.14,118.14,0,0,1,195.6,174.24Z"/><polygon class="cls-3" points="168.57 62.89 159.02 82 149.47 101.1 139.92 120.2 130.37 139.3 120.82 158.4 101.72 158.4 92.17 139.3 82.62 120.2 73.07 101.1 63.52 82 53.97 62.89 73.07 62.89 82.62 82 92.17 101.1 101.72 120.2 111.27 139.3 120.82 120.2 130.37 101.1 139.92 82 149.47 62.89 168.57 62.89"/><text class="cls-4" transform="matrix(0.96, 1.95, -0.9, 0.44, 5, 31.8)">DEVE<tspan class="cls-5" x="35.59" y="0">L</tspan><tspan x="43.02" y="0">OPER</tspan></text></g></g></svg>