<svg xmlns="http://www.w3.org/2000/svg" xmlns:xlink="http://www.w3.org/1999/xlink" viewBox="0 0 203.83 235.03"><defs><style>.cls-1,.cls-3,.cls-4{fill:#1d1d1b;}.cls-1{stroke:#6cc4c7;}.cls-1,.cls-2,.cls-3,.cls-4{stroke-miterlimit:10;}.cls-1,.cls-2,.cls-3{stroke-width:0.5px;}.cls-2{stroke:#9d9d9c;fill:url(#Degradado_sin_nombre_6);}.cls-3{stroke:#9ec9ed;}.cls-4{font-size:14.58px;stroke:#0099cd;font-family:FranklinGothic-HeavyItalic, Franklin Gothic Heavy;font-weight:800;font-style:italic;}.cls-5{letter-spacing:-0.02em;}</style><linearGradient id="Degradado_sin_nombre_6" x1="9.05" y1="132.27" x2="211.16" y2="132.27" gradientTransform="matrix(0.92, -0.03, 0.03, 0.92, 6.24, -0.98)" gradientUnits="userSpaceOnUse"><stop offset="0" stop-color="#fff"/><stop offset="0.14" stop-color="#d0d0d0"/><stop offset="0.38" stop-color="#878787"/><stop offset="0.59" stop-color="#4d4d4d"/><stop offset="0.77" stop-color="#232323"/><stop offset="0.92" stop-color="#090909"/><stop offset="1"/></linearGradient></defs><g id="Capa_2" data-name="Capa 2"><g id="Layer_1" data-name="Layer 1"><polygon class="cls-1" points="153.74 163.83 153.74 163.84 144.2 180.65 77.33 180.65 77.33 62.89 96.43 62.89 96.43 163.83 153.74 163.83"/><path class="cls-2" d="M196.42,157.8a119.31,119.31,0,0,1-7.53,16.44c-1.82,3.29-3.78,6.46-5.85,9.5A117.19,117.19,0,0,1,29.59,220.11c-2.7-1.49-5.32-3.08-7.85-4.74,2.27-3.47,4.43-7.07,6.47-10.76,1.14-2.07,2.24-4.14,3.29-6.23q3.63,2.46,7.55,4.64a97.64,97.64,0,0,0,132.76-38.23c1.33-2.41,2.56-4.86,3.66-7.34A97.66,97.66,0,0,0,138.14,34.64h0Q136,33.27,133.68,32a97.3,97.3,0,0,0-24.61-9.55s0,0-.06,0A97.87,97.87,0,0,0,37.82,32.73q-4,2.28-7.75,4.94l-.79-1.49c-.45-.85-.92-1.7-1.39-2.55Q24.26,27.11,20,20.87A117.14,117.14,0,0,1,198.3,82.74a116.93,116.93,0,0,1-1.88,75.06Z"/><path class="cls-2" d="M196.42,157.8a119.31,119.31,0,0,1-7.53,16.44c-1.82,3.29-3.78,6.46-5.85,9.5A117.19,117.19,0,0,1,29.59,220.11c-2.7-1.49-5.32-3.08-7.85-4.74,2.27-3.47,4.43-7.07,6.47-10.76,1.14-2.07,2.24-4.14,3.29-6.23q3.63,2.46,7.55,4.64a97.64,97.64,0,0,0,132.76-38.23c1.33-2.41,2.56-4.86,3.66-7.34A97.66,97.66,0,0,0,138.14,34.64h0Q136,33.27,133.68,32a97.3,97.3,0,0,0-24.61-9.55s0,0-.06,0A97.87,97.87,0,0,0,37.82,32.73q-4,2.28-7.75,4.94l-.79-1.49c-.45-.85-.92-1.7-1.39-2.55Q24.26,27.11,20,20.87A117.14,117.14,0,0,1,198.3,82.74a116.93,116.93,0,0,1-1.88,75.06Z"/><path class="cls-2" d="M165.64,203.86a117.32,117.32,0,0,1-136,16.25c-2.7-1.49-5.32-3.08-7.85-4.74,2.27-3.47,4.43-7.07,6.47-10.76,1.14-2.07,2.24-4.14,3.29-6.23q3.63,2.46,7.55,4.64a97.64,97.64,0,0,0,132.76-38.23c1.33-2.41,2.56-4.86,3.66-7.34A97.66,97.66,0,0,0,138.14,34.64h0Q136,33.27,133.68,32a97.3,97.3,0,0,0-24.61-9.55s0,0-.06,0A97.87,97.87,0,0,0,37.82,32.73q-4,2.28-7.75,4.94l-.79-1.49c-.45-.85-.92-1.7-1.39-2.55Q24.26,27.11,20,20.87A117.14,117.14,0,0,1,198.3,82.74a116.93,116.93,0,0,1-1.88,75.06,119.31,119.31,0,0,1-7.53,16.44c-1.82,3.29-3.78,6.46-5.85,9.5A117.14,117.14,0,0,1,165.64,203.86Z"/><path class="cls-2" d="M165.64,203.86a117.32,117.32,0,0,1-136,16.25c-2.7-1.49-5.32-3.08-7.85-4.74,2.27-3.47,4.43-7.07,6.47-10.76,1.14-2.07,2.24-4.14,3.29-6.23q3.63,2.46,7.55,4.64a97.64,97.64,0,0,0,132.76-38.23c1.33-2.41,2.56-4.86,3.66-7.34A97.66,97.66,0,0,0,138.14,34.64h0Q136,33.27,133.68,32a97.3,97.3,0,0,0-24.61-9.55s0,0-.06,0A97.87,97.87,0,0,0,37.82,32.73q-4,2.28-7.75,4.94l-.79-1.49c-.45-.85-.92-1.7-1.39-2.55Q24.26,27.11,20,20.87A117.14,117.14,0,0,1,198.3,82.74a116.93,116.93,0,0,1-1.88,75.06,119.31,119.31,0,0,1-7.53,16.44c-1.82,3.29-3.78,6.46-5.85,9.5A117.14,117.14,0,0,1,165.64,203.86Z"/><path class="cls-2" d="M188.89,174.24c-1.82,3.29-3.78,6.46-5.85,9.5A117.19,117.19,0,0,1,29.59,220.11c-2.7-1.49-5.32-3.08-7.85-4.74,2.27-3.47,4.43-7.07,6.47-10.76,1.14-2.07,2.24-4.14,3.29-6.23q3.63,2.46,7.55,4.64a97.64,97.64,0,0,0,132.76-38.23c1.33-2.41,2.56-4.86,3.66-7.34A97.66,97.66,0,0,0,138.14,34.64h0Q136,33.27,133.68,32a97.3,97.3,0,0,0-24.61-9.55s0,0-.06,0A97.87,97.87,0,0,0,37.82,32.73q-4,2.28-7.75,4.94l-.79-1.49c-.45-.85-.92-1.7-1.39-2.55Q24.26,27.11,20,20.87A117.14,117.14,0,0,1,198.3,82.74a116.93,116.93,0,0,1-1.88,75.06A119.31,119.31,0,0,1,188.89,174.24Z"/><polygon class="cls-3" points="161.86 62.89 152.31 82 142.75 101.1 133.21 120.2 123.66 139.3 114.11 158.4 95 158.4 85.46 139.3 75.91 120.2 66.36 101.1 56.81 82 47.26 62.89 66.36 62.89 75.91 82 85.46 101.1 95 120.2 104.56 139.3 114.11 120.2 123.66 101.1 133.21 82 142.75 62.89 161.86 62.89"/><text class="cls-4" transform="translate(5 32.56) rotate(63.93) scale(1.7 1)">DEVE<tspan class="cls-5" x="35.59" y="0">L</tspan><tspan x="43.02" y="0">OPER</tspan></text></g></g></svg>